# xmcd CD database file
#
# Track frame offsets:
#	150
#	11905
#	25745
#	44725
#	59913
#	74175
#	90100
#	108708
#	120018
#	134415
#	152538
#	165225
#
# Disc length: 2379 seconds
#
# Revision: 6
# Processed by: cddbd v1.5PL3 Copyright (c) Steve Scherf et al.
# Submitted via: CDex 1.50Beta3
#
DISCID=9f09490c
DTITLE=久石譲 - FANTASTIC ファンタスティック・オルゴール
DYEAR=1900
DGENRE=Soundtrack
TTITLE0=ナウシカ・レクイエム
TTITLE1=君をのせて
TTITLE2=空から降ってきた少女
TTITLE3=さんぽ
TTITLE4=風のとおり道
TTITLE5=まいご
TTITLE6=となりのトトロ
TTITLE7=黄昏の迷い子たち
TTITLE8=やさしさに包まれたなら
TTITLE9=風の丘
TTITLE10=木洩れ陽の路地
TTITLE11=ねこバス
EXTD=
EXTT0=
EXTT1=
EXTT2=
EXTT3=
EXTT4=
EXTT5=
EXTT6=
EXTT7=
EXTT8=
EXTT9=
EXTT10=
EXTT11=
PLAYORDER=
